<svg width="21" height="22" viewBox="0 0 21 22" fill="none" xmlns="http://www.w3.org/2000/svg">
<path fill-rule="evenodd" clip-rule="evenodd" d="M15.7649 21.701C13.7448 21.1949 9.60927 19.768 5.86016 16.0189C2.11105 12.2698 0.684203 8.13428 0.178075 6.11419C-0.11279 4.95328 0.410977 3.83303 1.29909 3.19866L3.62734 1.53562C4.98962 0.562568 6.88472 0.892757 7.83764 2.2692L9.30343 4.38645C9.92563 5.28519 9.71102 6.51699 8.82152 7.15234L7.65274 7.98718C7.82963 8.66379 8.37979 10.0533 10.1028 11.7763C11.8258 13.4993 13.2153 14.0494 13.8919 14.2263L14.7267 13.0575C15.3621 12.168 16.5939 11.9534 17.4926 12.5756L19.6099 14.0414C20.9863 14.9943 21.3165 16.8894 20.3434 18.2517L18.6804 20.58C18.046 21.4681 16.9258 21.9918 15.7649 21.701ZM7.27437 14.6047C10.6838 18.0141 14.4462 19.3088 16.2509 19.761C16.5147 19.827 16.8336 19.7245 17.0529 19.4175L18.716 17.0892C19.0403 16.6351 18.9303 16.0034 18.4714 15.6858L16.3542 14.22L15.4583 15.4743C15.0922 15.9868 14.4151 16.3889 13.6267 16.2188C12.6427 16.0065 10.8237 15.3256 8.68859 13.1905C6.5535 11.0554 5.87259 9.23639 5.66027 8.25239C5.49017 7.46399 5.89221 6.7869 6.40479 6.42077L7.65905 5.52487L6.19325 3.40761C5.87561 2.9488 5.24391 2.83874 4.78982 3.16309L2.46157 4.82613C2.15453 5.04544 2.05202 5.36434 2.11811 5.62812C2.57029 7.43287 3.86499 11.1953 7.27437 14.6047Z" fill="#151618"/>
</svg>
