<svg width="22" height="23" viewBox="0 0 22 23" fill="none" xmlns="http://www.w3.org/2000/svg">
<path fill-rule="evenodd" clip-rule="evenodd" d="M11 17.1079C14.3137 17.1079 17 14.4216 17 11.1079C17 7.7942 14.3137 5.10791 11 5.10791C7.68629 5.10791 5 7.7942 5 11.1079C5 14.4216 7.68629 17.1079 11 17.1079ZM11 15.1079C13.2091 15.1079 15 13.317 15 11.1079C15 8.89877 13.2091 7.10791 11 7.10791C8.79086 7.10791 7 8.89877 7 11.1079C7 13.317 8.79086 15.1079 11 15.1079Z" fill="#0F0F0F"/>
<path d="M17 4.10791C16.4477 4.10791 16 4.55563 16 5.10791C16 5.66019 16.4477 6.10791 17 6.10791C17.5523 6.10791 18 5.66019 18 5.10791C18 4.55563 17.5523 4.10791 17 4.10791Z" fill="#0F0F0F"/>
<path fill-rule="evenodd" clip-rule="evenodd" d="M0.653961 3.38397C0 4.66744 0 6.3476 0 9.70791V12.5079C0 15.8682 0 17.5484 0.653961 18.8319C1.2292 19.9608 2.14708 20.8787 3.27606 21.4539C4.55953 22.1079 6.23969 22.1079 9.6 22.1079H12.4C15.7603 22.1079 17.4405 22.1079 18.7239 21.4539C19.8529 20.8787 20.7708 19.9608 21.346 18.8319C22 17.5484 22 15.8682 22 12.5079V9.70791C22 6.3476 22 4.66744 21.346 3.38397C20.7708 2.25499 19.8529 1.33711 18.7239 0.761871C17.4405 0.10791 15.7603 0.10791 12.4 0.10791H9.6C6.23969 0.10791 4.55953 0.10791 3.27606 0.761871C2.14708 1.33711 1.2292 2.25499 0.653961 3.38397ZM12.4 2.10791H9.6C7.88684 2.10791 6.72225 2.10947 5.82208 2.18301C4.94524 2.25465 4.49684 2.3845 4.18404 2.54388C3.43139 2.92738 2.81947 3.5393 2.43597 4.29195C2.27659 4.60475 2.14674 5.05315 2.0751 5.92999C2.00156 6.83016 2 7.99475 2 9.70791V12.5079C2 14.2211 2.00156 15.3857 2.0751 16.2858C2.14674 17.1627 2.27659 17.6111 2.43597 17.9239C2.81947 18.6765 3.43139 19.2884 4.18404 19.6719C4.49684 19.8313 4.94524 19.9612 5.82208 20.0328C6.72225 20.1064 7.88684 20.1079 9.6 20.1079H12.4C14.1132 20.1079 15.2777 20.1064 16.1779 20.0328C17.0548 19.9612 17.5032 19.8313 17.816 19.6719C18.5686 19.2884 19.1805 18.6765 19.564 17.9239C19.7234 17.6111 19.8533 17.1627 19.9249 16.2858C19.9984 15.3857 20 14.2211 20 12.5079V9.70791C20 7.99475 19.9984 6.83016 19.9249 5.92999C19.8533 5.05315 19.7234 4.60475 19.564 4.29195C19.1805 3.5393 18.5686 2.92738 17.816 2.54388C17.5032 2.3845 17.0548 2.25465 16.1779 2.18301C15.2777 2.10947 14.1132 2.10791 12.4 2.10791Z" fill="#0F0F0F"/>
</svg>
