<svg width="22" height="23" viewBox="0 0 22 23" fill="none" xmlns="http://www.w3.org/2000/svg">
<path fill-rule="evenodd" clip-rule="evenodd" d="M19 0.10791C20.6569 0.10791 22 1.45106 22 3.10791V19.1079C22 20.7648 20.6569 22.1079 19 22.1079H3C1.34315 22.1079 0 20.7648 0 19.1079V3.10791C0 1.45106 1.34315 0.10791 3 0.10791H19ZM19 2.10791C19.5523 2.10791 20 2.55563 20 3.10791V19.1079C20 19.6602 19.5523 20.1079 19 20.1079H14V13.1078H16.0762C16.5066 13.1078 16.8887 12.8324 17.0249 12.4241L17.4679 11.095C17.6298 10.6094 17.2683 10.1078 16.7564 10.1078H14V8.10783C14 7.60783 14.5 7.10783 15 7.10783H17C17.5523 7.10783 18 6.66011 18 6.10783V5.42184C18 5.09882 17.7937 4.80921 17.4813 4.72678C16.1705 4.38086 15 4.38086 15 4.38086C12.5 4.38086 11 6.10783 11 7.60783V10.1078H9C8.44772 10.1078 8 10.5555 8 11.1078V12.1078C8 12.6601 8.44771 13.1078 9 13.1078H11V20.1079H3C2.44772 20.1079 2 19.6602 2 19.1079V3.10791C2 2.55563 2.44772 2.10791 3 2.10791H19Z" fill="#151618"/>
</svg>
