<svg width="22" height="19" viewBox="0 0 22 19" fill="none" xmlns="http://www.w3.org/2000/svg">
<path fill-rule="evenodd" clip-rule="evenodd" d="M18.7828 1.31102C19.1314 1.23137 19.3744 1.15306 19.5735 1.0708C19.8525 0.955523 20.0838 0.817432 20.4492 0.584859C20.7564 0.389403 21.15 0.372382 21.474 0.540544C21.798 0.708706 22.0001 1.03488 22.0001 1.38972C22.0001 2.43212 21.8654 3.28646 21.5535 4.03834C21.2912 4.67077 20.9226 5.18444 20.4817 5.65196C20.2955 8.89519 19.322 11.4421 17.8337 13.3717C16.2911 15.3717 14.2387 16.6524 12.0751 17.3696C9.91796 18.0847 7.6387 18.2445 5.59678 18.0024C3.56824 17.7619 1.69312 17.1142 0.386128 16.1339C0.0282049 15.8654 -0.0976105 15.3983 0.0795872 14.9958C0.256785 14.5933 0.692641 14.3562 1.14152 14.418C2.42749 14.5952 3.66538 14.3133 4.68327 13.9101C4.48289 13.805 4.29396 13.6912 4.11836 13.574C3.19083 12.9548 2.44248 12.1142 2.10564 11.4645C1.96626 11.1957 1.96482 10.8796 2.10175 10.6096C2.17239 10.4703 2.27569 10.3515 2.40111 10.261C1.04685 9.18317 0.500069 7.69238 0.500069 6.69363C0.500069 6.39667 0.641945 6.11627 0.884667 5.93352C0.986724 5.85668 1.10182 5.80071 1.22316 5.76699C1.12182 5.48083 1.04318 5.19171 0.983235 4.91181C0.717471 3.67083 0.741057 2.27015 1.02992 1.15584C1.12878 0.774523 1.45772 0.489217 1.86136 0.434698C2.26501 0.38018 2.66257 0.56736 2.86625 0.907817C3.94376 2.70891 5.93123 3.80982 7.78094 4.46196C8.65058 4.76856 9.45601 4.96394 10.0597 5.08406C10.19 3.90699 10.5308 2.93628 11.0539 2.1653C11.7439 1.14812 12.7064 0.546294 13.7401 0.277945C15.5228 -0.184842 17.5009 0.342409 18.7828 1.31102ZM9.7485 6.99122C9.0634 6.85855 8.12179 6.63568 7.0942 6.27339C5.73698 5.79488 4.16096 5.04876 2.8408 3.89302C2.86442 4.1057 2.89797 4.31657 2.9419 4.52173C3.16315 5.55487 3.57427 6.13347 3.94728 6.31332C4.40349 6.5333 4.61492 7.04913 4.43795 7.51045C4.19835 8.13503 3.56817 8.18631 2.99558 8.04825C3.45611 8.71409 4.28385 9.37795 5.66447 9.59985C6.14065 9.67638 6.49216 10.07 6.49994 10.5355C6.50772 11.001 6.16956 11.4054 5.69618 11.4967L4.82572 11.6646C4.95888 11.7762 5.10308 11.8856 5.25678 11.9882C5.95369 12.4535 6.65344 12.6542 7.25753 12.5086C7.70998 12.3995 8.18055 12.6065 8.3917 13.0075C8.60286 13.4085 8.49853 13.897 8.14025 14.1849C7.49633 14.7018 6.74433 15.1165 5.99065 15.4608C5.63683 15.6224 5.24142 15.7819 4.81197 15.9223C5.14226 15.9902 5.48594 16.046 5.84086 16.0881C7.61143 16.2981 9.58217 16.1565 11.425 15.5457C13.2614 14.9369 14.959 13.8671 16.2289 12.2206C17.4971 10.5764 18.3821 8.30104 18.5008 5.21148C18.5101 4.96823 18.6145 4.73739 18.793 4.56527C19.2426 4.13165 19.6142 3.63464 19.797 3.04304C19.4771 3.13921 19.1169 3.22245 18.6878 3.30155C18.3624 3.36155 18.0273 3.2622 17.793 3.03626C17.0284 2.29899 15.5165 1.81415 14.26 2.14033C13.6687 2.29385 13.1312 2.62618 12.7275 3.22121C12.3154 3.82873 12.0001 4.77515 12.0001 6.2115C12.0001 6.48438 11.8802 6.74449 11.6701 6.92734C11.1721 7.36084 10.334 7.1046 9.7485 6.99122Z" fill="#0F0F0F"/>
</svg>
