<svg width="22" height="17" viewBox="0 0 22 17" fill="none" xmlns="http://www.w3.org/2000/svg">
<path fill-rule="evenodd" clip-rule="evenodd" d="M19 0.976562C20.6569 0.976562 22 2.31971 22 3.97656V13.9766C22 15.6334 20.6569 16.9766 19 16.9766H3C1.34315 16.9766 0 15.6334 0 13.9766V3.97656C0 2.31971 1.34315 0.976562 3 0.976562H19ZM18.2529 2.97656H3.74718L10.3804 8.2133C10.7437 8.50012 11.2563 8.50012 11.6197 8.21329L18.2529 2.97656ZM2 4.14536V13.9766C2 14.5288 2.44772 14.9766 3 14.9766H19C19.5523 14.9766 20 14.5288 20 13.9766V4.14539L12.8589 9.78306C11.769 10.6435 10.231 10.6435 9.14108 9.78306L2 4.14536Z" fill="#151618"/>
</svg>
