<svg width="24" height="19" viewBox="0 0 24 19" fill="none" xmlns="http://www.w3.org/2000/svg">
<path fill-rule="evenodd" clip-rule="evenodd" d="M9.49614 4.23967C9.18664 4.06281 8.80639 4.06408 8.49807 4.243C8.18976 4.42192 8 4.75144 8 5.10791V13.1079C8 13.4644 8.18976 13.7939 8.49807 13.9728C8.80639 14.1517 9.18664 14.153 9.49614 13.9762L16.4961 9.97615C16.8077 9.79811 17 9.46677 17 9.10791C17 8.74905 16.8077 8.41771 16.4961 8.23967L9.49614 4.23967ZM13.9844 9.10791L10 11.3847V6.83109L13.9844 9.10791Z" fill="#0F0F0F"/>
<path fill-rule="evenodd" clip-rule="evenodd" d="M0 9.10791C0 5.35818 0 3.48331 0.954915 2.16898C1.26331 1.74451 1.6366 1.37122 2.06107 1.06283C3.3754 0.10791 5.25027 0.10791 9 0.10791H15C18.7497 0.10791 20.6246 0.10791 21.9389 1.06283C22.3634 1.37122 22.7367 1.74451 23.0451 2.16898C24 3.48331 24 5.35818 24 9.10791C24 12.8576 24 14.7325 23.0451 16.0468C22.7367 16.4713 22.3634 16.8446 21.9389 17.153C20.6246 18.1079 18.7497 18.1079 15 18.1079H9C5.25027 18.1079 3.3754 18.1079 2.06107 17.153C1.6366 16.8446 1.26331 16.4713 0.954915 16.0468C0 14.7325 0 12.8576 0 9.10791ZM9 2.10791H15C16.9194 2.10791 18.1983 2.11066 19.1673 2.21564C20.0989 2.31657 20.504 2.49239 20.7634 2.68086C21.018 2.8659 21.242 3.08987 21.4271 3.34455C21.6155 3.60396 21.7913 4.00904 21.8923 4.9406C21.9973 5.90958 22 7.18849 22 9.10791C22 11.0273 21.9973 12.3062 21.8923 13.2752C21.7913 14.2068 21.6155 14.6119 21.4271 14.8713C21.242 15.1259 21.018 15.3499 20.7634 15.535C20.504 15.7234 20.0989 15.8993 19.1673 16.0002C18.1983 16.1052 16.9194 16.1079 15 16.1079H9C7.08058 16.1079 5.80167 16.1052 4.83269 16.0002C3.90113 15.8993 3.49605 15.7234 3.23664 15.535C2.98196 15.3499 2.75799 15.1259 2.57295 14.8713C2.38448 14.6119 2.20866 14.2068 2.10773 13.2752C2.00275 12.3062 2 11.0273 2 9.10791C2 7.18849 2.00275 5.90958 2.10773 4.9406C2.20866 4.00904 2.38448 3.60396 2.57295 3.34455C2.75799 3.08987 2.98196 2.8659 3.23664 2.68086C3.49605 2.49239 3.90113 2.31657 4.83269 2.21564C5.80167 2.11066 7.08058 2.10791 9 2.10791Z" fill="#0F0F0F"/>
</svg>
